<?xml version="1.0" standalone="no"?><!DOCTYPE svg PUBLIC "-//W3C//DTD SVG 1.1//EN" "http://www.w3.org/Graphics/SVG/1.1/DTD/svg11.dtd"><svg t="1698915973010" class="icon" viewBox="0 0 1024 1024" version="1.1" xmlns="http://www.w3.org/2000/svg" p-id="11429" xmlns:xlink="http://www.w3.org/1999/xlink" width="200" height="200"><path d="M512 512m-512 0a512 512 0 1 0 1024 0 512 512 0 1 0-1024 0Z" fill="#F9B5C6" p-id="11430"></path><path d="M573.44 307.2l166.7584-66.70336c21.01248-8.3968 38.0416 3.15392 38.0416 25.84576v409.3952c0 22.6816-17.1008 34.22208-38.0416 25.84576L573.44 634.88V307.2zM460.8 798.72c-28.27264 0-56.76032-22.26176-63.5904-49.60256L368.64 634.88h122.88l14.14144 113.12128c3.50208 28.01664-16.64 50.71872-44.8512 50.71872z" fill="#D7496B" p-id="11431"></path><path d="M194.56 471.04c0-90.49088 73.27744-163.84 163.84-163.84h215.04v327.68H358.4c-90.49088 0-163.84-73.33888-163.84-163.84z" fill="#E96D8B" p-id="11432"></path></svg>