<?xml version="1.0" standalone="no"?><!DOCTYPE svg PUBLIC "-//W3C//DTD SVG 1.1//EN" "http://www.w3.org/Graphics/SVG/1.1/DTD/svg11.dtd"><svg t="1698915998919" class="icon" viewBox="0 0 1024 1024" version="1.1" xmlns="http://www.w3.org/2000/svg" p-id="12723" xmlns:xlink="http://www.w3.org/1999/xlink" width="200" height="200"><path d="M511.3 513m-447.7 0a447.7 447.7 0 1 0 895.4 0 447.7 447.7 0 1 0-895.4 0Z" fill="#6D77D6" p-id="12724"></path><path d="M511.3 972.5c-253.8-0.2-459.4-206-459.3-459.9a459.51 459.51 0 0 1 280.5-423c234.1-98 503.4 12.4 601.4 246.5 97.5 233-11.3 501.1-243.7 600.2a456.17 456.17 0 0 1-178.9 36.2z m0-895.4C271 77.1 75.4 272.7 75.4 513S271 948.9 511.3 948.9 947.2 753.4 947.2 513 751.7 77.1 511.3 77.1z" fill="#FFFFFF" p-id="12725"></path><path d="M362.7 726.57h298.6A66.74 66.74 0 0 0 727.84 660V362.26a66.74 66.74 0 0 0-66.54-66.54H362.7a66.74 66.74 0 0 0-66.54 66.54v298.6c0 35.77 29.94 65.71 66.54 65.71z" fill="#BAE1EA" p-id="12726"></path><path d="M661.3 730.73H362.7A70.64 70.64 0 0 1 292 660V362.26a70.64 70.64 0 0 1 70.7-70.7h298.6a70.64 70.64 0 0 1 70.7 70.7v298.6c0 38.26-31.61 69.87-70.7 69.87zM362.7 299.88c-34.1 0-62.38 28.28-62.38 62.38v298.6c0 34.1 28.28 62.38 62.38 62.38h298.6c34.1 0 62.38-28.28 62.38-62.38v-298.6c0-34.1-28.28-62.38-62.38-62.38z" fill="#333333" p-id="12727"></path><path d="M482.47 511.15A29.11 29.11 0 1 0 511.6 482a29.11 29.11 0 0 0-29.13 29.13z" fill="#F1AA23" p-id="12728"></path><path d="M511.58 543.59a33.27 33.27 0 1 1 33.27-33.27 33.37 33.37 0 0 1-33.27 33.27z m0-57.39a25 25 0 0 0-25 25 25 25 0 1 0 25-25z" fill="#333333" p-id="12729"></path><path d="M511.58 486.2a3.93 3.93 0 0 1-4.16-4.16V353.11a4.16 4.16 0 1 1 8.32 0v129.76c0 1.66-1.66 3.33-4.16 3.33zM644.67 515.31H544a4.16 4.16 0 1 1 0-8.32h100.67a4.16 4.16 0 1 1 0 8.32z" fill="#333333" p-id="12730"></path></svg>