<?xml version="1.0" standalone="no"?><!DOCTYPE svg PUBLIC "-//W3C//DTD SVG 1.1//EN" "http://www.w3.org/Graphics/SVG/1.1/DTD/svg11.dtd"><svg t="1698916168846" class="icon" viewBox="0 0 1024 1024" version="1.1" xmlns="http://www.w3.org/2000/svg" p-id="16398" xmlns:xlink="http://www.w3.org/1999/xlink" width="200" height="200"><path d="M511.994385 512.005615m-511.994385 0a511.994385 511.994385 0 1 0 1023.988769 0 511.994385 511.994385 0 1 0-1023.988769 0Z" fill="#31BEDE" p-id="16399"></path><path d="M441.834638 532.65055a15.128608 15.128608 0 0 1-10.438079-4.558401L387.16685 483.763345a14.699194 14.699194 0 0 1 0-20.942222 15.095576 15.095576 0 0 1 21.140414-0.330319l43.932421 44.328804a15.062544 15.062544 0 0 1 0 21.272541 15.029513 15.029513 0 0 1-10.405047 4.558401M682.505031 792.77673c-7.035794 0-13.642173-1.849786-19.191532-5.549359l-153.135869-93.282074-163.507884 81.753942a37.656361 37.656361 0 0 1-37.98668-2.97287 32.40429 32.40429 0 0 1-13.311854-33.824661l38.746414-173.549581-125.521204-118.188123A32.602481 32.602481 0 0 1 200.107225 412.24929c4.459306-11.891482 16.284725-20.810094 29.563546-22.296529l163.111502-18.200575L480.614084 216.039829c6.27606-11.131749 18.497862-18.200575 32.107002-17.837223 13.675205 0.396383 25.500624 7.795527 31.380301 19.323659l77.162509 154.225921 172.690751 18.200575c13.675205 1.486435 25.104241 10.041696 29.893866 22.296529a32.536417 32.536417 0 0 1-8.489198 34.914714l-106.263608 99.987549a17.572969 17.572969 0 0 1-24.014189 0 15.69015 15.69015 0 0 1 0.396383-22.692913l105.900258-99.921485c0.363351-0.396383 0.759734-1.156116 0.363351-1.882818 0-0.363351-0.69367-0.726702-1.453403-1.123084l-191.584996-19.68701L513.513852 231.234501C513.084437 230.540831 512.721086 230.177481 511.994385 230.177481s-1.453403 0.363351-1.453404 0.759733L414.550292 401.844243l-180.816597 19.68701c-0.759734 0.396383-1.486435 0.759734-1.486436 1.123084-0.330319 0.726702 0 1.486435 0.330319 1.882818L371.047285 554.94708 328.601299 745.541119c-0.396383 0.396383 0 1.123084 0.330319 1.486435a2.312233 2.312233 0 0 0 2.213137 0L511.994385 657.147765l169.420593 103.290739 1.090053 0.396382 1.123084-0.396382c0.726702-0.363351 0.726702-1.090053 0.726702-1.849787L596.886357 503.648546a15.624087 15.624087 0 0 1 11.065685-20.050361 16.945363 16.945363 0 0 1 21.041317 10.438079l87.46846 254.874108a32.734609 32.734609 0 0 1-12.188769 36.797532c-6.27606 4.459306-14.005524 7.068826-21.768019 7.068826" fill="#FFFFFF" p-id="16400"></path></svg>